<?xml version="1.0" encoding="utf-8"?>

<!DOCTYPE svg PUBLIC "-//W3C//DTD SVG 1.0//EN" "http://www.w3.org/TR/2001/REC-SVG-20010904/DTD/svg10.dtd">
<!-- Uploaded to: SVG Repo, www.svgrepo.com, Generator: SVG Repo Mixer Tools -->
<svg version="1.0" id="Layer_1" xmlns="http://www.w3.org/2000/svg" xmlns:xlink="http://www.w3.org/1999/xlink" 
	 width="800px" height="800px" viewBox="0 0 64 64" enable-background="new 0 0 64 64" xml:space="preserve">
<g>
	<path fill="#231F20" d="M0,32v20c0,2.211,1.789,4,4,4h56c2.211,0,4-1.789,4-4V32H0z M24,44h-8c-2.211,0-4-1.789-4-4s1.789-4,4-4h8
		c2.211,0,4,1.789,4,4S26.211,44,24,44z"/>
	<path fill="#231F20" d="M64,24V12c0-2.211-1.789-4-4-4H4c-2.211,0-4,1.789-4,4v12H64z"/>
</g>
</svg>